<?xml version="1.0" encoding="UTF-8" standalone="no"?>
<svg
   xmlns:dc="http://purl.org/dc/elements/1.1/"
   xmlns:cc="http://creativecommons.org/ns#"
   xmlns:rdf="http://www.w3.org/1999/02/22-rdf-syntax-ns#"
   xmlns:svg="http://www.w3.org/2000/svg"
   xmlns="http://www.w3.org/2000/svg"
   version="1.1"
   id="svg2"
   viewBox="0 0 354.33072 354.33072"
   height="100mm"
   width="100mm">
  <defs
     id="defs4" />
  <metadata
     id="metadata7">
    <rdf:RDF>
      <cc:Work
         rdf:about="">
        <dc:format>image/svg+xml</dc:format>
        <dc:type
           rdf:resource="http://purl.org/dc/dcmitype/StillImage" />
        <dc:title></dc:title>
      </cc:Work>
    </rdf:RDF>
  </metadata>
  <path
     id="path3791"
     d="M 30.210381,57.987459 C 13.982625,95.917932 65.121905,84.688661 59.280925,67.837101 36.264468,1.4333076 -36.011333,150.18055 70.025108,150.81913 c 15.60376,0.0939 38.622002,1.23948 50.518912,-11.15851 18.3718,-19.14562 8.15971,-106.967659 -23.387051,-81.187777 -27.632384,22.581068 12.749631,44.640667 -5.3394,43.864487 -8.953402,-0.38418 -19.073371,-0.0396 -27.405673,0.76955"
     style="fill:none;stroke:#000000;stroke-width:0.67148077px;stroke-linecap:butt;stroke-linejoin:miter;stroke-opacity:1" />
  <path
     id="path3793"
     d="m 163.7286,78.068698 c -18.55169,0.353381 -16.49813,16.747664 -16.55446,25.840222 -0.13273,21.43334 38.44328,25.65448 30.40738,-12.229684 -1.9095,-9.002057 -7.26754,-13.383 -13.85292,-13.610538 z"
     style="fill:none;stroke:#000000;stroke-width:0.77993804px;stroke-linecap:butt;stroke-linejoin:miter;stroke-opacity:1" />
</svg>
