<?xml version="1.0" encoding="UTF-8" standalone="no"?>
<svg
   xmlns:dc="http://purl.org/dc/elements/1.1/"
   xmlns:cc="http://creativecommons.org/ns#"
   xmlns:rdf="http://www.w3.org/1999/02/22-rdf-syntax-ns#"
   xmlns:svg="http://www.w3.org/2000/svg"
   xmlns="http://www.w3.org/2000/svg"
   version="1.1"
   id="svg2"
   viewBox="0 0 354.33072 354.33072"
   height="100mm"
   width="100mm">
  <defs
     id="defs4" />
  <metadata
     id="metadata7">
    <rdf:RDF>
      <cc:Work
         rdf:about="">
        <dc:format>image/svg+xml</dc:format>
        <dc:type
           rdf:resource="http://purl.org/dc/dcmitype/StillImage" />
        <dc:title></dc:title>
      </cc:Work>
    </rdf:RDF>
  </metadata>
  <path
     id="path3791"
     d="M 30.210381,57.987459 C 13.982625,95.917932 65.121905,84.688661 59.280925,67.837101 36.264468,1.4333076 -36.011333,150.18055 70.025108,150.81913 c 15.60376,0.0939 38.622002,1.23948 50.518912,-11.15851 18.3718,-19.14562 8.15971,-106.967659 -23.387051,-81.187777 -27.632384,22.581068 12.749631,44.640667 -5.3394,43.864487 -8.953402,-0.38418 -19.073371,-0.0396 -27.405673,0.76955"
     style="fill:none;stroke:#000000;stroke-width:0.67148077px;stroke-linecap:butt;stroke-linejoin:miter;stroke-opacity:1" />
  <path
     id="path3793"
     d="m 156.66595,59.726415 c -16.39699,0.216173 -14.58193,10.244941 -14.63172,15.80707 -0.11731,13.11128 33.97823,15.693446 26.87566,-7.481183 -1.68771,-5.50677 -6.42342,-8.186696 -12.24394,-8.325887 z"
     style="fill:none;stroke:#000000;stroke-width:0.57349265px;stroke-linecap:butt;stroke-linejoin:miter;stroke-opacity:1" />
  <path
     id="path3793-7"
     d="m 156.48837,108.52429 c -16.28723,0.22511 -14.48432,10.66853 -14.53378,16.46062 -0.11652,13.65339 33.75079,16.3423 26.69577,-7.79049 -1.67642,-5.73447 -6.38043,-8.52519 -12.16199,-8.67013 z"
     style="fill:none;stroke:#000000;stroke-width:0.5832665px;stroke-linecap:butt;stroke-linejoin:miter;stroke-opacity:1" />
</svg>
