<?xml version="1.0" encoding="UTF-8" standalone="no"?>
<!-- Created with Inkscape (http://www.inkscape.org/) -->

<svg
   xmlns:dc="http://purl.org/dc/elements/1.1/"
   xmlns:cc="http://creativecommons.org/ns#"
   xmlns:rdf="http://www.w3.org/1999/02/22-rdf-syntax-ns#"
   xmlns:svg="http://www.w3.org/2000/svg"
   xmlns="http://www.w3.org/2000/svg"
   xmlns:sodipodi="http://sodipodi.sourceforge.net/DTD/sodipodi-0.dtd"
   xmlns:inkscape="http://www.inkscape.org/namespaces/inkscape"
   width="210mm"
   height="297mm"
   viewBox="0 0 210 297"
   version="1.1"
   id="svg8"
   inkscape:version="0.92.2 (5c3e80d, 2017-08-06)"
   sodipodi:docname="Na.svg">
  <defs
     id="defs2" />
  <sodipodi:namedview
     id="base"
     pagecolor="#ffffff"
     bordercolor="#666666"
     borderopacity="1.0"
     inkscape:pageopacity="0.0"
     inkscape:pageshadow="2"
     inkscape:zoom="0.49497475"
     inkscape:cx="425.94197"
     inkscape:cy="580.92094"
     inkscape:document-units="mm"
     inkscape:current-layer="layer1"
     showgrid="false"
     inkscape:window-width="1366"
     inkscape:window-height="705"
     inkscape:window-x="-8"
     inkscape:window-y="-8"
     inkscape:window-maximized="1" />
  <metadata
     id="metadata5">
    <rdf:RDF>
      <cc:Work
         rdf:about="">
        <dc:format>image/svg+xml</dc:format>
        <dc:type
           rdf:resource="http://purl.org/dc/dcmitype/StillImage" />
        <dc:title></dc:title>
      </cc:Work>
    </rdf:RDF>
  </metadata>
  <g
     inkscape:label="Layer 1"
     inkscape:groupmode="layer"
     id="layer1">
    <path
       style="fill:none;stroke:#000000;stroke-width:0.26458332px;stroke-linecap:butt;stroke-linejoin:miter;stroke-opacity:1"
       d="m 83.922631,153.74354 c -18.250452,13.98443 -48.859751,13.10589 -54.522983,-9.6217 -1.876502,-7.53075 0.57643,-19.23932 8.077884,-22.80331 9.480472,-4.50424 23.45992,-3.38911 23.45992,-3.38911 0,0 3.57663,0.42232 0,0 0,0 -17.538977,-2.39558 -23.851531,-5.68611 -10.645796,-5.5493 -7.022553,-35.778968 13.733086,-43.343916 8.576059,-3.125774 28.570514,-2.364381 35.821642,3.082989 10.910546,11.457757 3.834869,18.405215 7.438225,28.841777 -10.217198,-57.427562 56.316156,-42.413203 59.868376,-6.414466 0.98458,14.373856 4.0251,22.785846 -0.36821,37.098336 -3.4438,11.21915 -4.52666,19.54755 -12.46072,25.44273 -6.58358,4.89174 -12.07226,5.07403 -20.84703,4.27633 -61.30517,-5.5732 18.80975,-73.865762 14.43255,-2.13816"
       id="path26"
       inkscape:connector-curvature="0"
       sodipodi:nodetypes="cssccsscccsssc" />
  </g>
</svg>
