<?xml version="1.0" encoding="UTF-8" standalone="no"?>
<svg
   xmlns:dc="http://purl.org/dc/elements/1.1/"
   xmlns:cc="http://creativecommons.org/ns#"
   xmlns:rdf="http://www.w3.org/1999/02/22-rdf-syntax-ns#"
   xmlns:svg="http://www.w3.org/2000/svg"
   xmlns="http://www.w3.org/2000/svg"
   version="1.1"
   id="svg2"
   viewBox="0 0 354.33072 354.33072"
   height="100mm"
   width="100mm">
  <defs
     id="defs4" />
  <metadata
     id="metadata7">
    <rdf:RDF>
      <cc:Work
         rdf:about="">
        <dc:format>image/svg+xml</dc:format>
        <dc:type
           rdf:resource="http://purl.org/dc/dcmitype/StillImage" />
        <dc:title></dc:title>
      </cc:Work>
    </rdf:RDF>
  </metadata>
  <path
     style="fill:none;fill-rule:evenodd;stroke:#000000;stroke-width:1px;stroke-linecap:butt;stroke-linejoin:miter;stroke-opacity:1"
     d="M 47.192797,72.362287 C 114.7044,29.267523 -63.844463,77.67907 62.294491,149.75847 148.87781,199.23465 173.355,39.327288 115.77966,58.519067 c -17.680556,5.893517 -12.97281,36.978108 -6.92161,49.080503 7.3219,14.6438 -32.957371,-0.95754 -49.080508,1.88772"
     id="path4245" />
  <path
     id="path4279"
     d="M 33.781529,88.582687 C -1.9243501,66.633886 68.31376,33.503967 68.31376,61.557464 c 0,0.590214 6.629697,27.025223 3.753503,27.025223 -14.483089,0 16.124408,-31.333924 21.019618,-33.781529 35.830589,-17.915295 33.619149,57.966332 16.515419,75.070062 -10.686865,10.68686 -49.573642,35.97885 -60.806757,13.51262 -1.525008,-3.05002 0.441308,-6.54645 3.002802,-7.50701 29.968165,-11.23806 54.141275,9.38135 70.565865,22.52102"
     style="fill:none;fill-rule:evenodd;stroke:#000000;stroke-width:1px;stroke-linecap:butt;stroke-linejoin:miter;stroke-opacity:1" />
</svg>
