<?xml version="1.0" encoding="UTF-8" standalone="no"?>
<svg
   xmlns:dc="http://purl.org/dc/elements/1.1/"
   xmlns:cc="http://creativecommons.org/ns#"
   xmlns:rdf="http://www.w3.org/1999/02/22-rdf-syntax-ns#"
   xmlns:svg="http://www.w3.org/2000/svg"
   xmlns="http://www.w3.org/2000/svg"
   id="svg8"
   version="1.1"
   viewBox="0 0 210 297"
   height="297mm"
   width="210mm">
  <defs
     id="defs2" />
  <metadata
     id="metadata5">
    <rdf:RDF>
      <cc:Work
         rdf:about="">
        <dc:format>image/svg+xml</dc:format>
        <dc:type
           rdf:resource="http://purl.org/dc/dcmitype/StillImage" />
        <dc:title></dc:title>
      </cc:Work>
    </rdf:RDF>
  </metadata>
  <g
     id="layer1">
    <path
       id="path62"
       d="m 88.78983,122.74027 c 1.088384,1.07958 -5.36998,-15.35512 -12.842865,-21.43401 -5.205727,-4.234645 -15.973952,-6.025927 -21.644862,-3.689328 -31.351867,22.854418 -9.327494,44.737178 21.476519,32.167908 3.334604,-2.70043 5.001432,-2.40706 11.94213,-6.51003 1.986731,-1.17445 4.657104,6.0641 8.652817,7.6147 7.249181,2.81316 16.410921,1.60318 16.410921,1.60318 14.66666,-1.68451 17.98313,-2.89732 16.12188,-37.013913 -0.80379,-14.73352 -26.08359,-20.449826 -36.673113,-22.98518"
       style="fill:none;stroke:#000000;stroke-width:0.27036563px;stroke-linecap:butt;stroke-linejoin:miter;stroke-opacity:1" />
    <path
       id="path64"
       d="m 129.35844,116.86033 c 14.06248,41.32192 68.43484,-13.89109 28.86512,-33.675953"
       style="fill:none;stroke:#000000;stroke-width:0.26458332px;stroke-linecap:butt;stroke-linejoin:miter;stroke-opacity:1" />
    <path
       id="path66"
       d="M 66.817379,66.079128 C 100.20491,87.723616 114.83709,54.712065 139.51469,32.937709"
       style="fill:none;stroke:#000000;stroke-width:0.26458332px;stroke-linecap:butt;stroke-linejoin:miter;stroke-opacity:1" />
  </g>
</svg>
