<?xml version="1.0" encoding="UTF-8" standalone="no"?>
<svg
   xmlns:dc="http://purl.org/dc/elements/1.1/"
   xmlns:cc="http://creativecommons.org/ns#"
   xmlns:rdf="http://www.w3.org/1999/02/22-rdf-syntax-ns#"
   xmlns:svg="http://www.w3.org/2000/svg"
   xmlns="http://www.w3.org/2000/svg"
   width="210mm"
   height="297mm"
   viewBox="0 0 210 297"
   version="1.1"
   id="svg8">
  <defs
     id="defs2" />
  <metadata
     id="metadata5">
    <rdf:RDF>
      <cc:Work
         rdf:about="">
        <dc:format>image/svg+xml</dc:format>
        <dc:type
           rdf:resource="http://purl.org/dc/dcmitype/StillImage" />
        <dc:title></dc:title>
      </cc:Work>
    </rdf:RDF>
  </metadata>
  <path
     id="path30"
     d="m 77.396185,134.02754 c -0.08412,-7.76372 0.107582,-11.91965 -10.067795,-14.47246 -16.064065,-4.03017 -22.976822,25.63659 -15.101695,29.57415 16.284051,8.14203 22.787766,1.82078 25.16949,-15.10169 1.332553,-9.46797 2.503475,12.56662 21.394064,18.24788 17.849061,5.36803 30.427451,-17.75685 27.057211,-34.60805 -3.08555,-15.42773 -20.70941,-18.36264 -32.720341,-20.76483 -0.359733,-0.072 -16.989409,0.0457 -16.989409,0 0,-2.08037 27.8282,-0.454225 54.11441,-3.14619 10.09336,-1.033659 39.86562,-6.677259 27.68645,15.73093 -13.23806,24.35642 -28.36116,-12.45823 -17.61865,-14.47245"
     style="fill:none;stroke:#000000;stroke-width:0.26458332px;stroke-linecap:butt;stroke-linejoin:miter;stroke-opacity:1" />
  <path
     id="path32"
     d="M 53.48517,81.800846 C 74.638317,104.09786 97.067331,68.714794 114.52119,56.631356"
     style="fill:none;stroke:#000000;stroke-width:0.26458332px;stroke-linecap:butt;stroke-linejoin:miter;stroke-opacity:1" />
</svg>
