<?xml version="1.0" encoding="UTF-8" standalone="no"?>
<svg
   xmlns:dc="http://purl.org/dc/elements/1.1/"
   xmlns:cc="http://creativecommons.org/ns#"
   xmlns:rdf="http://www.w3.org/1999/02/22-rdf-syntax-ns#"
   xmlns:svg="http://www.w3.org/2000/svg"
   xmlns="http://www.w3.org/2000/svg"
   width="100mm"
   height="100mm"
   viewBox="0 0 354.33072 354.33072"
   id="svg2"
   version="1.1">
  <defs
     id="defs4" />
  <metadata
     id="metadata7">
    <rdf:RDF>
      <cc:Work
         rdf:about="">
        <dc:format>image/svg+xml</dc:format>
        <dc:type
           rdf:resource="http://purl.org/dc/dcmitype/StillImage" />
        <dc:title></dc:title>
      </cc:Work>
    </rdf:RDF>
  </metadata>
  <path
     id="path3737"
     d="M 97.215733,63.434206 C 57.426125,11.428406 -21.28806,90.0957 19.290528,137.79911 c 5.185934,6.09648 17.227354,8.82873 27.065239,1.83121 8.733313,-6.21185 11.505159,-31.07978 12.480397,-24.4916 6.683361,45.14915 57.825356,30.16286 43.352976,-7.50701"
     style="fill:none;stroke:#000000;stroke-width:0.9375px;stroke-linecap:butt;stroke-linejoin:miter;stroke-opacity:1" />
  <path
     id="path3739"
     d="M 1.3247755,86.823677 C 17.717611,86.416249 84.998044,87.766133 116.13614,87.95807 c 21.06965,0.129875 12.31088,16.52915 0.38638,15.30914 -10.84272,-1.10933 -17.907251,-11.733911 0.46665,-20.156505 28.44658,-13.039915 -8.02557,-23.564888 -9.05803,-9.103908"
     style="fill:none;stroke:#000000;stroke-width:0.9375px;stroke-linecap:butt;stroke-linejoin:miter;stroke-opacity:1" />
  <path
     id="path3741"
     d="m 54.228023,25.487715 c 0.343622,7.888855 -0.113845,14.178233 -0.113845,21.747552"
     style="fill:none;stroke:#000000;stroke-width:0.9375px;stroke-linecap:butt;stroke-linejoin:miter;stroke-opacity:1" />
  <path
     id="path3743"
     d="m 73.917455,25.74971 c 0,8.338519 0.39812,13.69983 0.39812,21.763847"
     style="fill:none;stroke:#000000;stroke-width:0.9375px;stroke-linecap:butt;stroke-linejoin:miter;stroke-opacity:1" />
</svg>
