<?xml version="1.0" encoding="UTF-8" standalone="no"?>
<svg
   xmlns:dc="http://purl.org/dc/elements/1.1/"
   xmlns:cc="http://creativecommons.org/ns#"
   xmlns:rdf="http://www.w3.org/1999/02/22-rdf-syntax-ns#"
   xmlns:svg="http://www.w3.org/2000/svg"
   xmlns="http://www.w3.org/2000/svg"
   version="1.1"
   id="svg2"
   viewBox="0 0 354.33072 354.33072"
   height="100mm"
   width="100mm">
  <defs
     id="defs4" />
  <metadata
     id="metadata7">
    <rdf:RDF>
      <cc:Work
         rdf:about="">
        <dc:format>image/svg+xml</dc:format>
        <dc:type
           rdf:resource="http://purl.org/dc/dcmitype/StillImage" />
        <dc:title></dc:title>
      </cc:Work>
    </rdf:RDF>
  </metadata>
  <path
     id="path3713"
     d="m 6.5725025,103.82188 c 0.1486087,-11.735548 16.6721265,-10.842971 17.2139825,-2.5396 0.495074,16.79852 -15.3824805,25.98822 -11.43279,46.17408 3.649349,18.65089 25.018134,17.45166 27.519299,6.66977 0.766054,7.05798 15.004198,12.78614 23.46005,0.9209 15.293603,-21.44319 5.274212,-43.43729 -0.639361,-58.361577"
     style="fill:none;stroke:#000000;stroke-width:0.9375px;stroke-linecap:butt;stroke-linejoin:miter;stroke-opacity:1" />
  <path
     id="path3715"
     d="m 68.88524,145.3351 c 20.095612,38.00519 42.84979,-11.84634 20.143167,-48.236659"
     style="fill:none;stroke:#000000;stroke-width:0.9375px;stroke-linecap:butt;stroke-linejoin:miter;stroke-opacity:1" />
  <path
     id="path3717"
     d="m 94.95535,149.22098 c 21.61767,32.06447 39.27855,-22.86188 19.84647,-52.540868"
     style="fill:none;stroke:#000000;stroke-width:0.9375px;stroke-linecap:butt;stroke-linejoin:miter;stroke-opacity:1" />
  <path
     id="path3721"
     d="m 114.60388,99.539226 c 16.97184,-0.973309 24.58303,-5.13309 26.62495,-2.003166 3.28245,8.04133 -9.51456,8.41665 -6.79118,-1.39717"
     style="fill:#ffaaaa;stroke:#000000;stroke-width:0.9375px;stroke-linecap:butt;stroke-linejoin:miter;stroke-opacity:1" />
</svg>
